<?xml version="1.0" standalone="no"?>
<svg version="1.0" xmlns="http://www.w3.org/2000/svg"
 width="1080.000000pt" height="595.000000pt" viewBox="0 0 1080.000000 595.000000"
 preserveAspectRatio="xMidYMid meet">
<g transform="translate(0.000000,595.000000) scale(0.100000,-0.100000)"
fill="#027f6d" stroke="none">
<path d="M0 2975 l0 -2975 5400 0 5400 0 0 2975 0 2975 -5400 0 -5400 0 0
-2975z m2853 1070 c155 -40 286 -116 400 -231 148 -149 230 -316 257 -527 16
-118 10 -137 -38 -137 -20 0 -75 -7 -122 -15 -200 -34 -389 -121 -538 -249
-30 -25 -57 -46 -62 -46 -5 0 -37 44 -73 98 -137 209 -349 375 -582 455 -50
18 -49 38 7 122 86 128 233 233 373 266 76 18 229 15 305 -5 162 -44 313 -165
389 -313 30 -60 27 -69 -26 -87 -67 -23 -83 -21 -96 14 -6 17 -15 30 -19 30
-4 0 -8 6 -8 14 0 7 -27 41 -60 74 -184 187 -479 195 -667 18 -40 -37 -41 -52
-7 -60 29 -8 167 -91 229 -139 69 -54 180 -165 221 -222 21 -30 43 -55 48 -55
5 0 31 16 59 36 108 78 292 151 465 184 l62 13 -6 36 c-4 20 -19 71 -35 114
-124 343 -477 554 -824 493 -49 -8 -119 -27 -155 -41 -61 -24 -172 -86 -196
-110 -7 -6 -25 -22 -40 -36 -61 -51 -143 -167 -187 -261 -11 -24 -25 -38 -36
-38 -48 0 -113 14 -118 26 -7 18 80 188 127 249 231 300 591 424 953 330z
m1417 -292 c100 -105 224 -237 300 -318 l55 -59 5 225 5 224 63 3 c38 2 69 -2
78 -9 12 -9 14 -74 14 -374 0 -200 -3 -370 -6 -379 -4 -9 -18 -16 -34 -16 -21
0 -43 17 -101 82 -109 122 -167 186 -230 253 -31 33 -74 80 -97 105 l-41 45
-1 -238 0 -238 -72 3 -73 3 -3 375 c-1 206 0 381 3 387 2 7 15 13 28 13 17 0
48 -25 107 -87z m1092 30 c14 -32 42 -92 61 -133 32 -67 51 -109 117 -255 34
-75 82 -180 112 -244 16 -34 27 -69 24 -77 -4 -10 -25 -14 -75 -14 -68 0 -70
1 -90 33 -44 72 -132 124 -226 136 -109 13 -116 10 -148 -70 -16 -38 -35 -76
-44 -84 -17 -18 -138 -21 -148 -4 -4 5 1 27 10 47 10 20 33 71 52 112 19 41
50 107 69 146 19 39 34 73 34 76 0 3 22 53 49 110 27 56 67 142 90 191 34 73
44 87 64 87 19 0 29 -11 49 -57z m3799 41 c30 -8 62 -24 71 -35 17 -20 17 -23
-2 -59 -11 -21 -23 -41 -28 -44 -5 -3 -37 4 -73 15 -74 23 -124 19 -132 -11
-7 -29 10 -42 127 -99 116 -56 145 -87 153 -165 8 -70 -40 -135 -122 -166 -38
-15 -164 -14 -213 1 -57 17 -96 52 -89 81 9 35 46 71 66 62 58 -25 91 -33 132
-34 48 0 69 13 69 43 0 26 -19 40 -110 83 -116 54 -160 106 -160 186 0 70 42
119 130 151 31 11 128 6 181 -9z m-2886 -64 l0 -65 -97 -3 c-69 -2 -98 -6 -98
-15 0 -7 -1 -131 -1 -277 -1 -146 -3 -282 -6 -303 l-5 -38 -72 3 -71 3 -3 312
-2 312 -103 3 -102 3 -3 53 c-2 31 2 60 9 68 10 12 57 14 283 12 l271 -3 0
-65z m345 -196 c5 -257 5 -261 30 -297 45 -66 147 -85 210 -39 56 41 60 65 60
333 0 200 3 249 14 258 9 7 40 11 78 9 l63 -3 0 -280 c0 -271 -1 -282 -23
-326 -29 -59 -82 -112 -141 -141 -38 -19 -62 -23 -137 -23 -81 0 -97 3 -150
30 -63 33 -121 98 -144 163 -19 53 -27 547 -9 568 9 11 29 14 78 12 l66 -3 5
-261z m1101 256 c51 -14 96 -48 132 -98 26 -36 32 -55 35 -112 2 -37 -1 -83
-7 -102 -13 -39 -64 -97 -109 -124 l-31 -18 59 -110 c89 -168 89 -168 83 -183
-4 -11 -23 -13 -82 -11 l-76 3 -70 136 c-87 167 -81 159 -113 159 -73 -1 -71
2 -74 -154 l-3 -141 -71 -3 -71 -3 -7 38 c-3 21 -6 189 -6 374 0 247 3 338 12
347 15 15 346 17 399 2z m907 -62 l3 -68 -168 -2 -168 -3 0 -80 0 -80 140 -5
140 -5 0 -65 0 -65 -142 -3 -143 -3 0 -89 0 -90 168 -2 167 -3 0 -65 0 -65
-242 -3 -243 -2 0 378 c0 208 3 382 7 386 4 3 113 5 242 4 l236 -3 3 -67z
m-6652 -477 c176 -45 301 -114 436 -241 122 -114 218 -267 263 -418 10 -34 22
-62 26 -62 4 0 18 19 32 43 36 60 160 181 244 238 168 114 330 163 543 164
182 0 177 3 185 -99 23 -272 -77 -556 -269 -764 -52 -57 -177 -147 -266 -193
-84 -43 -281 -102 -307 -92 -22 8 -28 51 -27 183 0 109 4 135 28 205 58 169
173 309 327 398 56 32 196 80 209 72 13 -8 13 -50 -1 -98 -8 -32 -18 -41 -57
-59 -97 -43 -115 -54 -165 -97 -65 -54 -123 -130 -154 -200 -27 -62 -53 -161
-53 -209 0 -41 5 -40 133 24 171 85 288 202 373 374 54 110 75 191 81 319 l6
104 -95 -7 c-242 -17 -468 -143 -616 -344 -119 -162 -176 -374 -154 -578 8
-66 7 -91 -1 -97 -11 -7 -81 -2 -119 9 -23 7 -33 127 -22 253 5 53 9 164 9
246 0 167 -12 219 -83 360 -132 265 -393 432 -706 452 l-99 6 6 -109 c4 -68
14 -135 27 -179 79 -255 276 -463 518 -546 30 -10 58 -17 62 -14 5 3 6 24 4
48 -15 142 -77 275 -169 360 -51 48 -138 101 -199 122 -67 23 -83 42 -92 108
-5 37 -3 48 9 53 20 7 155 -30 209 -57 167 -85 298 -240 354 -419 23 -72 27
-104 27 -205 0 -71 -5 -132 -12 -149 -11 -29 -12 -29 -74 -23 -159 16 -390
134 -520 266 -76 76 -127 134 -127 144 0 3 -18 35 -41 73 -65 107 -103 227
-119 374 -11 95 -5 236 11 261 21 34 293 34 425 0z m7315 -116 c3 -2 3 -26 -1
-52 l-5 -48 -215 0 -215 0 -3 53 -3 52 219 0 c120 0 221 -2 223 -5z m-4829
-383 c26 -8 60 -25 74 -37 l28 -22 -28 -47 c-31 -54 -47 -57 -114 -21 -59 32
-114 33 -142 3 -11 -12 -20 -31 -20 -41 0 -28 62 -82 117 -103 155 -58 228
-162 194 -275 -27 -91 -102 -138 -219 -139 -97 0 -153 15 -198 54 -36 31 -37
34 -25 64 7 17 22 39 32 48 19 17 22 17 85 -14 79 -39 126 -41 159 -7 30 29
30 38 8 76 -12 20 -47 44 -108 75 -147 75 -195 139 -181 242 8 56 29 92 73
122 71 49 164 57 265 22z m1142 -34 c35 -35 123 -127 196 -205 73 -79 136
-143 139 -143 3 0 5 84 3 186 -2 103 1 191 6 196 11 11 107 18 122 8 10 -6 13
-89 13 -346 l0 -337 -22 -9 c-25 -9 -22 -12 -181 162 -52 58 -118 130 -146
160 -28 30 -59 65 -70 78 -10 12 -21 22 -24 22 -3 0 -6 -89 -6 -199 -1 -109
-4 -203 -8 -210 -8 -12 -83 -15 -110 -5 -14 5 -16 46 -16 349 0 408 -3 399
104 293z m986 40 c47 -15 110 -55 110 -71 0 -23 -50 -87 -69 -87 -10 0 -40 11
-67 25 -72 37 -133 32 -153 -11 -20 -46 26 -98 119 -134 137 -52 199 -134 187
-242 -8 -60 -43 -111 -103 -146 -35 -21 -49 -22 -139 -19 -106 3 -158 21 -199
66 -19 21 -19 22 0 57 32 60 38 61 110 26 76 -38 130 -42 162 -12 53 49 17
101 -111 163 -141 68 -194 146 -168 247 33 130 166 187 321 138z m1544 -21
c42 -44 283 -300 329 -351 l27 -28 2 198 3 199 30 5 c16 3 46 3 67 2 l38 -4 0
-343 c0 -309 -2 -343 -16 -349 -9 -4 -26 0 -38 8 -12 7 -100 102 -196 209 -96
107 -180 198 -187 201 -9 4 -12 -45 -13 -197 0 -148 -4 -203 -13 -209 -21 -13
-104 -9 -116 6 -16 18 -15 664 1 683 18 22 39 15 82 -30z m-3267 19 c3 -3 5
-100 4 -215 -2 -190 0 -215 17 -255 49 -110 185 -113 240 -6 21 43 22 55 22
258 -1 118 1 216 3 219 10 9 118 6 128 -4 7 -7 9 -99 7 -249 -3 -232 -4 -240
-28 -288 -30 -59 -95 -118 -148 -134 -60 -18 -170 -15 -218 7 -58 26 -106 72
-134 128 -24 47 -25 55 -28 292 -3 193 -1 246 10 253 13 9 115 4 125 -6z
m2132 8 l31 -6 0 -124 0 -124 58 0 c61 0 198 -32 215 -49 28 -28 32 -8 32 141
l0 153 60 6 c33 3 63 4 68 2 4 -2 7 -156 7 -343 0 -374 5 -350 -66 -350 -68 0
-74 10 -74 113 -1 80 -4 95 -23 118 -40 48 -152 89 -242 89 l-35 0 0 -154 c0
-171 2 -166 -70 -166 -75 0 -70 -26 -70 350 l0 339 28 4 c15 2 32 5 38 6 6 0
26 -2 43 -5z m815 0 c14 -5 16 -45 16 -344 0 -376 5 -350 -70 -350 -75 0 -70
-26 -70 350 0 261 3 339 13 343 18 8 93 8 111 1z m1471 -6 c8 -5 12 -66 6
-110 -1 -5 -68 -8 -151 -8 l-150 0 0 -75 0 -75 118 0 c78 0 122 -4 130 -12 7
-7 12 -29 12 -49 0 -70 1 -69 -136 -69 l-124 0 0 -80 0 -80 144 0 c103 0 146
-4 153 -12 14 -19 16 -74 3 -98 -11 -20 -17 -20 -223 -18 l-212 3 -3 339 c-1
208 1 342 7 346 14 8 414 7 426 -2z"/>
<path d="M5267 3454 c-22 -47 -37 -87 -35 -89 2 -2 35 -9 73 -15 39 -6 78 -13
87 -16 13 -4 7 19 -30 100 -26 58 -49 105 -52 105 -3 0 -22 -38 -43 -85z"/>
<path d="M7470 3584 l0 -106 106 4 c105 4 106 4 135 36 52 58 31 133 -44 161
-16 6 -66 11 -113 11 l-84 0 0 -106z"/>
</g>
</svg>
