<svg width="42" height="42" viewBox="0 0 42 42" fill="none" xmlns="http://www.w3.org/2000/svg">
<path d="M4.4541 0.901367C2.24496 0.901367 0.454102 2.69223 0.454102 4.90137V37.6789C0.454102 39.8881 2.24496 41.6789 4.4541 41.6789H37.2153C39.4244 41.6789 41.2153 39.8881 41.2153 37.6789V4.90137C41.2153 2.69223 39.4244 0.901367 37.2153 0.901367H4.4541ZM29.7761 6.22257C30.0721 6.21628 30.3804 6.2259 30.6991 6.24744C31.1067 6.248 31.5207 6.26116 31.9384 6.28259C33.2709 6.35096 34.2781 7.50178 34.2416 8.83555C34.2043 10.2018 33.0861 11.2899 31.7193 11.2899H30.9155C29.3874 11.2561 28.8355 11.8497 28.7859 13.5747V14.6658C28.7859 16.158 29.9956 17.3677 31.4878 17.3677H31.6088C33.0798 17.3677 34.2546 18.5932 34.1924 20.063C34.1338 21.4474 32.9944 22.5395 31.6088 22.5395H31.4928C29.9978 22.5395 28.7859 23.7515 28.7859 25.2464V34.2445C28.7859 35.7319 27.5802 36.9376 26.0928 36.9376C24.6054 36.9376 23.3997 35.7319 23.3997 34.2445V24.4092C23.3997 23.3766 22.5626 22.5396 21.5301 22.5396C20.4975 22.5396 19.6604 21.7025 19.6604 20.6699V19.2373C19.6604 18.2048 20.4975 17.3677 21.5301 17.3677C22.5626 17.3677 23.3997 16.5306 23.3997 15.4981V12.9276C23.3997 9.72621 24.7526 7.68852 27.4176 6.65563C28.102 6.38622 28.888 6.24143 29.7761 6.22257Z" fill="#176C4D"/>
</svg>
