<svg width="20px" height="20px" viewBox="0 0 800 800" fill="none" xmlns="http://www.w3.org/2000/svg">
<g clip-path="url(#clip0_1_2)">
<path d="M775 400C775 607.108 607.108 775 400 775M775 400C775 192.893 607.108 25 400 25M775 400H25M400 775C192.893 775 25 607.108 25 400M400 775C400 775 566.667 650 566.667 400C566.667 150 400 25 400 25M400 775C400 775 233.333 650 233.333 400C233.333 150 400 25 400 25M400 25C192.893 25 25 192.893 25 400" stroke="#176C4D" stroke-width="50"/>
</g>
<defs>
<clipPath id="clip0_1_2">
<rect width="800" height="800" fill="white"/>
</clipPath>
</defs>
</svg>
