<svg width="18" height="23" viewBox="0 0 18 23" fill="none" xmlns="http://www.w3.org/2000/svg">
<path d="M17 9.22857C17 13.7737 9 21.5714 9 21.5714C9 21.5714 1 13.7737 1 9.22857C1 4.68457 4.58171 1 9 1C13.4183 1 17 4.68457 17 9.22857Z" stroke="#176C4D" stroke-width="1.5"/>
<path d="M9.00028 10.1431C9.30338 10.1431 9.59407 10.0227 9.8084 9.8084C10.0227 9.59407 10.1431 9.30338 10.1431 9.00028C10.1431 8.69717 10.0227 8.40648 9.8084 8.19216C9.59407 7.97783 9.30338 7.85742 9.00028 7.85742C8.69717 7.85742 8.40648 7.97783 8.19216 8.19216C7.97783 8.40648 7.85742 8.69717 7.85742 9.00028C7.85742 9.30338 7.97783 9.59407 8.19216 9.8084C8.40648 10.0227 8.69717 10.1431 9.00028 10.1431Z" fill="#176C4D" stroke="#176C4D" stroke-width="1.5" stroke-linecap="round" stroke-linejoin="round"/>
</svg>
