<svg width="152" height="92" viewBox="0 0 152 92" fill="none" xmlns="http://www.w3.org/2000/svg">
<rect x="0.766667" y="0.766667" width="147.967" height="71.912" stroke="white" stroke-width="1.53333"/>
<path d="M3.23073 87.9965C2.52949 87.9965 1.92842 87.8355 1.42753 87.5135C0.9338 87.1843 0.586756 86.7299 0.3864 86.1503L1.24507 85.6566C1.53129 86.5654 2.20033 87.0197 3.2522 87.0197C3.76024 87.0197 4.15022 86.916 4.42213 86.7085C4.7012 86.501 4.84073 86.2183 4.84073 85.8605C4.84073 85.5099 4.70478 85.2416 4.43287 85.0555C4.18958 84.891 3.7352 84.7013 3.06973 84.4867L2.3506 84.2505C2.19318 84.1861 1.98567 84.0931 1.72807 83.9715C1.47762 83.8427 1.29516 83.7139 1.18067 83.5851C0.865822 83.2416 0.7084 82.823 0.7084 82.3293C0.7084 81.671 0.937378 81.1558 1.39533 80.7837C1.85329 80.3973 2.41142 80.2041 3.06973 80.2041C3.65649 80.2041 4.17169 80.3508 4.61533 80.6441C5.05898 80.9375 5.39171 81.3382 5.61353 81.8463L4.77633 82.3293C4.45433 81.5565 3.88547 81.1701 3.06973 81.1701C2.66187 81.1701 2.33271 81.2702 2.08227 81.4706C1.83182 81.671 1.7066 81.9429 1.7066 82.2863C1.7066 82.6155 1.82467 82.8659 2.0608 83.0377C2.30409 83.2166 2.71196 83.3954 3.2844 83.5743L3.72447 83.7139C3.96776 83.8069 4.10013 83.857 4.1216 83.8641C4.35058 83.95 4.60102 84.0681 4.87293 84.2183C5.06613 84.3257 5.25933 84.4902 5.45253 84.7121C5.70298 84.9625 5.8282 85.3382 5.8282 85.8391C5.8282 86.4974 5.58849 87.0233 5.10907 87.4169C4.62249 87.8033 3.99638 87.9965 3.23073 87.9965ZM11.6053 83.5314V80.3436H12.5928V87.8569H11.6053V84.4759H7.956V87.8569H6.9578V80.3436H7.956V83.5314H11.6053ZM14.2007 80.3436H16.927C17.6139 80.3436 18.1899 80.5762 18.655 81.0413C19.1201 81.5064 19.3527 82.0788 19.3527 82.7586C19.3527 83.4384 19.1201 84.0108 18.655 84.4759C18.1899 84.941 17.6139 85.1736 16.927 85.1736H15.1989V87.8569H14.2007V80.3436ZM15.1989 84.2398H16.927C17.3491 84.2398 17.6926 84.1003 17.9574 83.8212C18.2293 83.5278 18.3652 83.1736 18.3652 82.7586C18.3652 82.3293 18.2293 81.9751 17.9574 81.696C17.6855 81.4169 17.342 81.2774 16.927 81.2774H15.1989V84.2398ZM21.5299 84.5296V86.9124H25.0182V87.8569H20.5317V80.3436H24.9646V81.2881H21.5299V83.5958H24.6962V84.5296H21.5299ZM30.8923 85.9464V80.3436H31.8905V87.8569H31.0855L27.2215 82.2434V87.8569H26.2233V80.3436H27.0283L30.8923 85.9464ZM36.181 87.8569V80.3436H37.1792V87.8569H36.181ZM43.4599 85.9464V80.3436H44.4581V87.8569H43.6531L39.7891 82.2434V87.8569H38.7909V80.3436H39.5959L43.4599 85.9464ZM46.0653 80.3436H48.9955C50.0116 80.3436 50.8595 80.7085 51.5393 81.4384C52.2191 82.1611 52.559 83.0484 52.559 84.1003C52.559 85.145 52.2191 86.0358 51.5393 86.7729C50.8595 87.4956 50.0116 87.8569 48.9955 87.8569H46.0653V80.3436ZM47.0635 86.9124H48.9955C49.7611 86.9124 50.3872 86.6441 50.8738 86.1074C51.3604 85.5636 51.6037 84.8945 51.6037 84.1003C51.6037 83.306 51.3604 82.637 50.8738 82.0931C50.3872 81.5565 49.7611 81.2881 48.9955 81.2881H47.0635V86.9124ZM54.7676 84.5296V86.9124H58.2559V87.8569H53.7694V80.3436H58.2023V81.2881H54.7676V83.5958H57.9339V84.5296H54.7676ZM59.461 80.3436H62.1873C62.8742 80.3436 63.4502 80.5762 63.9153 81.0413C64.3804 81.5064 64.613 82.0788 64.613 82.7586C64.613 83.4384 64.3804 84.0108 63.9153 84.4759C63.4502 84.941 62.8742 85.1736 62.1873 85.1736H60.4592V87.8569H59.461V80.3436ZM60.4592 84.2398H62.1873C62.6094 84.2398 62.9529 84.1003 63.2177 83.8212C63.4896 83.5278 63.6255 83.1736 63.6255 82.7586C63.6255 82.3293 63.4896 81.9751 63.2177 81.696C62.9457 81.4169 62.6023 81.2774 62.1873 81.2774H60.4592V84.2398ZM66.7902 84.5296V86.9124H70.2785V87.8569H65.792V80.3436H70.2249V81.2881H66.7902V83.5958H69.9565V84.5296H66.7902ZM76.1526 85.9464V80.3436H77.1508V87.8569H76.3458L72.4818 82.2434V87.8569H71.4836V80.3436H72.2886L76.1526 85.9464ZM78.7579 80.3436H81.6881C82.7042 80.3436 83.5522 80.7085 84.2319 81.4384C84.9117 82.1611 85.2516 83.0484 85.2516 84.1003C85.2516 85.145 84.9117 86.0358 84.2319 86.7729C83.5522 87.4956 82.7042 87.8569 81.6881 87.8569H78.7579V80.3436ZM79.7561 86.9124H81.6881C82.4538 86.9124 83.0799 86.6441 83.5665 86.1074C84.053 85.5636 84.2963 84.8945 84.2963 84.1003C84.2963 83.306 84.053 82.637 83.5665 82.0931C83.0799 81.5565 82.4538 81.2881 81.6881 81.2881H79.7561V86.9124ZM87.4602 84.5296V86.9124H90.9486V87.8569H86.462V80.3436H90.8949V81.2881H87.4602V83.5958H90.6266V84.5296H87.4602ZM96.8226 85.9464V80.3436H97.8208V87.8569H97.0158L93.1518 82.2434V87.8569H92.1536V80.3436H92.9586L96.8226 85.9464ZM98.8162 80.3436H104.237V81.2881H102.015V87.8569H101.027V81.2881H98.8162V80.3436ZM107.908 80.3436H110.634C111.321 80.3436 111.897 80.5762 112.362 81.0413C112.827 81.5064 113.06 82.0788 113.06 82.7586C113.06 83.4384 112.827 84.0108 112.362 84.4759C111.897 84.941 111.321 85.1736 110.634 85.1736H108.906V87.8569H107.908V80.3436ZM108.906 84.2398H110.634C111.056 84.2398 111.4 84.1003 111.664 83.8212C111.936 83.5278 112.072 83.1736 112.072 82.7586C112.072 82.3293 111.936 81.9751 111.664 81.696C111.392 81.4169 111.049 81.2774 110.634 81.2774H108.906V84.2398ZM119.484 87.8569H118.422L117.81 86.1718H114.429L113.817 87.8569H112.754L115.556 80.3436H116.683L119.484 87.8569ZM116.114 81.535L114.772 85.238H117.466L116.114 81.535ZM125.93 87.8569H124.825L123.14 84.9804H121.369V87.8569H120.371V80.3436H123.376C124.02 80.3436 124.571 80.5726 125.029 81.0305C125.487 81.4813 125.716 82.0287 125.716 82.6727C125.716 83.1593 125.569 83.603 125.276 84.0037C124.975 84.4115 124.603 84.6942 124.159 84.8516L125.93 87.8569ZM123.376 81.2774H121.369V84.0788H123.376C123.748 84.0788 124.063 83.9428 124.32 83.6709C124.585 83.399 124.718 83.0663 124.718 82.6727C124.718 82.2792 124.585 81.95 124.32 81.6853C124.063 81.4134 123.748 81.2774 123.376 81.2774ZM126.163 80.3436H131.583V81.2881H129.362V87.8569H128.374V81.2881H126.163V80.3436ZM137.24 85.9464V80.3436H138.239V87.8569H137.434L133.57 82.2434V87.8569H132.571V80.3436H133.376L137.24 85.9464ZM140.844 84.5296V86.9124H144.332V87.8569H139.846V80.3436H144.279V81.2881H140.844V83.5958H144.01V84.5296H140.844ZM151.097 87.8569H149.992L148.306 84.9804H146.535V87.8569H145.537V80.3436H148.543C149.187 80.3436 149.738 80.5726 150.196 81.0305C150.654 81.4813 150.883 82.0287 150.883 82.6727C150.883 83.1593 150.736 83.603 150.442 84.0037C150.142 84.4115 149.77 84.6942 149.326 84.8516L151.097 87.8569ZM148.543 81.2774H146.535V84.0788H148.543C148.915 84.0788 149.23 83.9428 149.487 83.6709C149.752 83.399 149.884 83.0663 149.884 82.6727C149.884 82.2792 149.752 81.95 149.487 81.6853C149.23 81.4134 148.915 81.2774 148.543 81.2774Z" fill="white"/>
<path d="M30.7619 34.0245V16.9654C30.7619 16.9031 30.7503 16.8415 30.7277 16.784C30.7051 16.7265 30.6721 16.6743 30.6304 16.6303C30.5887 16.5863 30.5392 16.5514 30.4847 16.5276C30.4302 16.5038 30.3718 16.4915 30.3128 16.4915H28.104C27.9859 16.4947 27.8735 16.5457 27.7899 16.6339C27.7064 16.722 27.6581 16.8407 27.655 16.9654V27.416L17.764 16.3378C17.7361 16.306 17.7023 16.2805 17.6648 16.2629C17.6272 16.2453 17.5867 16.2359 17.5456 16.2354H17.0723C17.0122 16.2353 16.9528 16.248 16.8976 16.2726C16.8423 16.2972 16.7922 16.3333 16.7504 16.3786C16.7085 16.424 16.6757 16.4778 16.6538 16.5367C16.632 16.5957 16.6216 16.6587 16.6232 16.722V33.7043C16.6216 33.7676 16.632 33.8306 16.6538 33.8896C16.6757 33.9485 16.7085 34.0023 16.7504 34.0477C16.7922 34.093 16.8423 34.1291 16.8976 34.1537C16.9528 34.1783 17.0122 34.191 17.0723 34.191H19.2568C19.377 34.1876 19.4912 34.1349 19.575 34.044C19.6589 33.9531 19.7058 33.8312 19.7058 33.7043V22.831L29.6332 34.3574C29.6612 34.3892 29.6949 34.4147 29.7325 34.4323C29.77 34.4499 29.8106 34.4593 29.8517 34.4599H30.3007C30.4158 34.4636 30.5279 34.4204 30.6137 34.3394C30.6996 34.2584 30.7526 34.1456 30.7619 34.0245Z" fill="white"/>
<path d="M60.611 56.0051V40.9874C60.6078 40.8758 60.5615 40.7699 60.4821 40.6922C60.4026 40.6144 60.2962 40.5709 60.1855 40.571H58.1454C58.0359 40.571 57.9308 40.6149 57.8534 40.693C57.7759 40.7711 57.7324 40.877 57.7324 40.9874V50.2126L48.5709 40.4448C48.5175 40.391 48.446 40.3595 48.3706 40.3564H47.9326C47.8219 40.3597 47.7168 40.4064 47.6397 40.4865C47.5626 40.5666 47.5195 40.6739 47.5195 40.7855V55.7779C47.5195 55.8896 47.5626 55.9968 47.6397 56.0769C47.7168 56.1571 47.8219 56.2037 47.9326 56.207H49.9476C50.0605 56.207 50.1687 56.1618 50.2485 56.0813C50.3283 56.0008 50.3731 55.8917 50.3731 55.7779V46.1742L59.5472 56.3332C59.5711 56.3638 59.6015 56.3888 59.6361 56.4062C59.6707 56.4237 59.7088 56.4332 59.7474 56.4341H60.1354C60.1954 56.4413 60.2561 56.4355 60.3137 56.4172C60.3712 56.3989 60.4243 56.3684 60.4692 56.3278C60.5142 56.2872 60.5501 56.2375 60.5746 56.1818C60.599 56.1262 60.6114 56.0659 60.611 56.0051Z" fill="white"/>
<path d="M118.213 56.008V40.9876C118.213 40.8771 118.169 40.7711 118.092 40.693C118.014 40.6149 117.909 40.571 117.8 40.571H115.76C115.649 40.571 115.542 40.6145 115.463 40.6922C115.383 40.77 115.337 40.8759 115.334 40.9876V50.2144L106.185 40.4448C106.132 40.391 106.06 40.3595 105.985 40.3564H105.547C105.434 40.3564 105.326 40.4017 105.246 40.4821C105.166 40.5626 105.121 40.6718 105.121 40.7856V55.7808C105.121 55.8946 105.166 56.0038 105.246 56.0842C105.326 56.1647 105.434 56.2099 105.547 56.2099H107.562C107.675 56.2099 107.783 56.1647 107.863 56.0842C107.942 56.0038 107.987 55.8946 107.987 55.7808V46.1753L117.174 56.3361C117.198 56.3668 117.228 56.3918 117.263 56.4092C117.297 56.4267 117.335 56.4362 117.374 56.4371H117.787C117.9 56.4371 118.008 56.3919 118.088 56.3114C118.168 56.231 118.213 56.1218 118.213 56.008Z" fill="white"/>
<path d="M64.8003 19.2414V17.2307C64.7971 17.1099 64.7474 16.9949 64.6614 16.9095C64.5754 16.824 64.4596 16.7746 64.338 16.7715H52.7072C52.5834 16.7714 52.4645 16.8194 52.3758 16.9052C52.2871 16.991 52.2357 17.1078 52.2324 17.2307V19.2414C52.2324 19.3665 52.2824 19.4864 52.3715 19.5749C52.4605 19.6633 52.5813 19.713 52.7072 19.713H56.9048V33.4526C56.9078 33.5746 56.957 33.691 57.0428 33.7785C57.1285 33.8659 57.2443 33.918 57.367 33.9242H59.6657C59.7906 33.9211 59.9095 33.8704 59.9979 33.7826C60.0862 33.6948 60.1373 33.5767 60.1404 33.4526V19.713H64.338C64.4618 19.7098 64.5793 19.6587 64.6657 19.5706C64.752 19.4825 64.8003 19.3643 64.8003 19.2414Z" fill="white"/>
<path d="M83.1288 27.5555V17.236C83.1226 17.1127 83.0707 16.9963 82.9835 16.9102C82.8963 16.824 82.7802 16.7745 82.6585 16.7715H80.3439C80.2213 16.7714 80.1035 16.82 80.0156 16.9067C79.9278 16.9935 79.8768 17.1117 79.8736 17.236V27.4048C79.8736 28.3604 79.4993 29.2768 78.8331 29.9525C78.1669 30.6282 77.2634 31.0078 76.3213 31.0078C75.3791 31.0078 74.4756 30.6282 73.8094 29.9525C73.1432 29.2768 72.7689 28.3604 72.7689 27.4048V17.236C72.7657 17.1117 72.7147 16.9935 72.6269 16.9067C72.539 16.82 72.4212 16.7714 72.2986 16.7715H69.984C69.8623 16.7745 69.7462 16.824 69.659 16.9102C69.5718 16.9963 69.5199 17.1127 69.5137 17.236V27.5555C69.5137 29.3867 70.2309 31.143 71.5076 32.4379C72.7842 33.7328 74.5158 34.4602 76.3213 34.4602C78.1267 34.4602 79.8583 33.7328 81.135 32.4379C82.4116 31.143 83.1288 29.3867 83.1288 27.5555Z" fill="white"/>
<path d="M117.748 16.7715H107.682C107.56 16.7746 107.443 16.824 107.357 16.9095C107.27 16.9949 107.22 17.1099 107.217 17.2307V33.4526C107.217 33.5755 107.265 33.6937 107.352 33.7818C107.439 33.8699 107.558 33.921 107.682 33.9242H117.748C117.81 33.9242 117.872 33.912 117.929 33.8881C117.986 33.8643 118.038 33.8293 118.082 33.7853C118.125 33.7414 118.159 33.6893 118.182 33.6321C118.204 33.575 118.215 33.5139 118.214 33.4526V31.4419C118.214 31.3816 118.201 31.3219 118.178 31.2662C118.155 31.2104 118.12 31.1598 118.077 31.1172C118.034 31.0745 117.983 31.0407 117.926 31.0176C117.87 30.9946 117.809 30.9827 117.748 30.9827H110.4V26.6883H116.527C116.59 26.6899 116.652 26.6793 116.71 26.657C116.767 26.6346 116.82 26.6011 116.865 26.5583C116.909 26.5154 116.945 26.4643 116.969 26.4077C116.993 26.3512 117.006 26.2904 117.006 26.2291V24.1936C117.002 24.0695 116.951 23.9513 116.862 23.8636C116.773 23.7758 116.653 23.7251 116.527 23.7219H110.4V19.713H117.748C117.81 19.713 117.872 19.7008 117.929 19.6769C117.986 19.6531 118.038 19.6181 118.082 19.5742C118.125 19.5302 118.159 19.4781 118.182 19.4209C118.204 19.3638 118.215 19.3027 118.214 19.2414V17.2307C118.214 17.1704 118.201 17.1107 118.178 17.055C118.155 16.9993 118.12 16.9486 118.077 16.906C118.034 16.8633 117.983 16.8295 117.926 16.8064C117.87 16.7834 117.809 16.7715 117.748 16.7715Z" fill="white"/>
<path d="M132.919 31.7798H123.929C123.651 31.7798 123.449 31.925 123.449 32.1036V33.6112C123.449 33.7787 123.651 33.9239 123.929 33.9239H132.919C133.197 33.9239 133.399 33.7787 133.399 33.6112V32.1036C133.399 31.925 133.197 31.7798 132.919 31.7798Z" fill="white"/>
<path d="M21.5242 46.939C19.7848 46.2076 18.982 45.4888 18.982 44.4169C19.0339 43.9488 19.2629 43.5212 19.6187 43.228C19.9745 42.9349 20.428 42.8001 20.8795 42.8533C21.9574 43.0289 22.9815 43.4605 23.8718 44.1143C24.0061 44.1804 24.1599 44.1898 24.3007 44.1404C24.4415 44.0909 24.5582 43.9866 24.626 43.8495L25.441 42.5884C25.5142 42.4734 25.5424 42.3337 25.5198 42.1978C25.4972 42.0619 25.4255 41.9401 25.3193 41.8571C24.062 40.9104 22.5548 40.3866 21.0012 40.3564C17.5831 40.3564 16.1357 42.6515 16.1357 44.6439C16.1357 47.2794 18.167 48.6161 20.1862 49.461C21.9986 50.2302 22.9231 50.9994 22.9231 52.147C22.9047 52.3935 22.8393 52.6338 22.7306 52.8539C22.6219 53.074 22.4721 53.2695 22.2899 53.4291C22.1077 53.5886 21.8967 53.7091 21.6692 53.7834C21.4417 53.8577 21.2022 53.8844 20.9647 53.862C19.7828 53.6913 18.6615 53.2142 17.7048 52.4748C17.6479 52.4316 17.5827 52.4013 17.5137 52.3861C17.4446 52.3708 17.3733 52.371 17.3043 52.3865C17.2353 52.402 17.1703 52.4325 17.1135 52.476C17.0567 52.5195 17.0095 52.5749 16.975 52.6388L16.1965 54.0133C16.014 54.379 16.1113 54.4925 16.3059 54.6942C17.6248 55.8633 19.3152 56.4834 21.0498 56.4344C24.1029 56.4092 26.0492 54.3033 26.0492 51.983C26.0492 49.1079 23.6164 47.8091 21.5242 46.939Z" fill="white"/>
<path d="M41.8672 40.3595H39.815C39.7069 40.3595 39.6031 40.4033 39.5256 40.4818C39.448 40.5602 39.4029 40.6671 39.3997 40.7796V50.0214C39.4265 50.469 39.365 50.9176 39.219 51.3395C39.0731 51.7615 38.8457 52.1478 38.551 52.4746C38.2563 52.8015 37.9005 53.062 37.5055 53.2401C37.1105 53.4181 36.6847 53.51 36.2543 53.51C35.8239 53.51 35.3981 53.4181 35.0031 53.2401C34.608 53.062 34.2522 52.8015 33.9575 52.4746C33.6628 52.1478 33.4355 51.7615 33.2895 51.3395C33.1436 50.9176 33.0821 50.469 33.1089 50.0214V40.7796C33.1093 40.7199 33.0975 40.6608 33.0742 40.6062C33.051 40.5516 33.0168 40.5028 32.9741 40.463C32.9313 40.4233 32.8809 40.3935 32.8262 40.3756C32.7715 40.3578 32.7138 40.3523 32.6569 40.3595H30.6414C30.5364 40.3656 30.4372 40.4119 30.3628 40.4894C30.2885 40.5669 30.2441 40.6702 30.2383 40.7796V50.1614C30.2383 51.8258 30.8728 53.4221 32.0021 54.599C33.1315 55.7759 34.6632 56.4371 36.2604 56.4371C37.8575 56.4371 39.3893 55.7759 40.5186 54.599C41.648 53.4221 42.2825 51.8258 42.2825 50.1614V40.7796C42.2764 40.6681 42.2303 40.563 42.1534 40.4852C42.0765 40.4074 41.9743 40.3626 41.8672 40.3595Z" fill="white"/>
<path d="M70.2519 46.939C68.4929 46.2076 67.6989 45.4888 67.6989 44.4169C67.751 43.9488 67.9809 43.5212 68.3382 43.228C68.6956 42.9349 69.151 42.8001 69.6045 42.8533C70.6869 43.0289 71.7154 43.4605 72.6095 44.1143C72.7443 44.1804 72.8988 44.1898 73.0402 44.1404C73.1816 44.0909 73.2988 43.9866 73.3669 43.8495L74.1853 42.5884C74.2576 42.4719 74.2839 42.3312 74.2589 42.1952C74.234 42.0592 74.1596 41.9382 74.051 41.8571C72.7947 40.907 71.2838 40.3827 69.7266 40.3564C66.2941 40.3564 64.8404 42.6515 64.8404 44.6439C64.8404 47.2794 66.8682 48.6161 68.9082 49.461C70.7283 50.2302 71.6567 50.9994 71.6567 52.147C71.6383 52.3935 71.5726 52.6338 71.4634 52.8539C71.3542 53.074 71.2038 53.2695 71.0208 53.4291C70.8378 53.5886 70.626 53.7091 70.3975 53.7834C70.169 53.8577 69.9285 53.8844 69.69 53.862C68.5031 53.6913 67.377 53.2142 66.4162 52.4748C66.3591 52.4316 66.2936 52.4013 66.2243 52.3861C66.155 52.3708 66.0833 52.371 66.014 52.3865C65.9447 52.402 65.8794 52.4325 65.8224 52.476C65.7654 52.5195 65.718 52.5749 65.6833 52.6388L64.9015 54.0133C64.706 54.379 64.816 54.4925 65.0114 54.6942C66.3359 55.8633 68.0335 56.4834 69.7755 56.4344C72.8172 56.4344 74.7473 54.3033 74.7473 52.0083C74.8083 49.1079 72.3652 47.8091 70.2519 46.939Z" fill="white"/>
<path d="M91.6152 40.3564H89.5613C89.4499 40.3564 89.3428 40.3996 89.2628 40.4769C89.1828 40.5542 89.1362 40.6595 89.133 40.7705V47.859C87.3563 46.5291 85.0127 46.1402 82.1525 46.1402H81.8627V40.7705C81.8627 40.6607 81.8189 40.5554 81.7409 40.4777C81.6629 40.4001 81.5572 40.3564 81.4469 40.3564H79.3679C79.2564 40.3564 79.1493 40.3996 79.0693 40.4769C78.9893 40.5542 78.9427 40.6595 78.9395 40.7705V55.4745C78.9395 55.5306 78.9505 55.586 78.9721 55.6378C78.9936 55.6895 79.0251 55.7366 79.0649 55.7762C79.1047 55.8158 79.1519 55.8472 79.2039 55.8686C79.2559 55.8901 79.3116 55.9011 79.3679 55.9011H81.4469C81.5583 55.8978 81.6641 55.8515 81.7417 55.7718C81.8193 55.6922 81.8627 55.5855 81.8627 55.4745V48.7498C85.0757 48.7498 87.3563 49.2015 88.7045 50.9203C88.977 51.282 89.1231 51.7227 89.1203 52.1749V55.4369C89.1203 55.4929 89.1314 55.5484 89.1529 55.6001C89.1745 55.6519 89.206 55.6989 89.2458 55.7385C89.2856 55.7781 89.3328 55.8096 89.3848 55.831C89.4368 55.8524 89.4925 55.8635 89.5487 55.8635H91.6026C91.6588 55.8635 91.7145 55.8524 91.7665 55.831C91.8185 55.8096 91.8657 55.7781 91.9055 55.7385C91.9453 55.6989 91.9768 55.6519 91.9984 55.6001C92.0199 55.5484 92.031 55.4929 92.031 55.4369V40.7705C92.0278 40.6617 91.983 40.5582 91.9057 40.4812C91.8284 40.4042 91.7245 40.3596 91.6152 40.3564Z" fill="white"/>
<path d="M99.5022 40.3564H97.6513C97.4394 40.3564 97.2676 40.5474 97.2676 40.783V55.4745C97.2676 55.7101 97.4394 55.9011 97.6513 55.9011H99.5022C99.7141 55.9011 99.8859 55.7101 99.8859 55.4745V40.783C99.8859 40.5474 99.7141 40.3564 99.5022 40.3564Z" fill="white"/>
<path d="M132.969 40.3564H123.879C123.767 40.3564 123.659 40.3996 123.579 40.4769C123.499 40.5542 123.453 40.6595 123.449 40.7705V55.4745C123.449 55.5877 123.494 55.6962 123.575 55.7762C123.655 55.8562 123.765 55.9011 123.879 55.9011H132.969C133.083 55.9011 133.193 55.8562 133.273 55.7762C133.354 55.6962 133.399 55.5877 133.399 55.4745V53.6553C133.399 53.5422 133.354 53.4337 133.273 53.3537C133.193 53.2737 133.083 53.2288 132.969 53.2288H126.353V49.352H131.884C131.995 49.3488 132.101 49.3024 132.179 49.2227C132.257 49.1431 132.3 49.0364 132.3 48.9255V47.0812C132.297 46.9724 132.252 46.8689 132.175 46.7919C132.097 46.7149 131.993 46.6703 131.884 46.6672H126.353V43.0162H132.969C133.081 43.0163 133.189 42.9731 133.269 42.8958C133.349 42.8185 133.395 42.7131 133.399 42.6022V40.7705C133.395 40.6595 133.349 40.5542 133.269 40.4769C133.189 40.3996 133.081 40.3564 132.969 40.3564Z" fill="white"/>
<path d="M47.9643 33.5308C48.0193 33.6552 48.1102 33.7593 48.2247 33.8292C48.3392 33.8991 48.4718 33.9315 48.6048 33.9219H50.7233C50.8009 33.9275 50.8785 33.9115 50.9479 33.8756C51.0173 33.8397 51.0759 33.7853 51.1175 33.718C51.1592 33.6508 51.1823 33.5733 51.1845 33.4937C51.1866 33.4141 51.1677 33.3354 51.1298 33.2659L43.641 16.5137C43.6094 16.4276 43.5517 16.3541 43.4763 16.3042C43.4009 16.2542 43.3118 16.2304 43.2222 16.2362H42.9882C42.8992 16.2341 42.8117 16.2595 42.7371 16.309C42.6624 16.3584 42.6039 16.4298 42.5694 16.5137L35.0067 33.2659C34.9679 33.3364 34.9488 33.4164 34.9514 33.4972C34.954 33.578 34.9782 33.6565 35.0215 33.7242C35.0647 33.7919 35.1252 33.8461 35.1964 33.881C35.2677 33.9158 35.3469 33.93 35.4254 33.9219H37.5317C37.6875 33.9257 37.8405 33.8789 37.9688 33.7883C38.0971 33.6977 38.1941 33.5678 38.2461 33.4173L39.4778 30.7304L39.8103 29.9735C40.2191 29.9236 40.6304 29.8983 41.042 29.8978C44.4416 29.8978 46.7449 31.3233 47.9766 33.5434L47.9643 33.5308ZM40.8942 27.3371L43.0128 22.4931H43.0867L45.5501 27.9678L45.624 28.1192C44.1961 27.5846 42.6854 27.3196 41.1652 27.3371H40.8942Z" fill="white"/>
<path d="M88.8887 17.2311C88.8919 17.1081 88.9421 16.9913 89.0286 16.9054C89.1151 16.8196 89.2311 16.7716 89.3519 16.7716H96.2027C97.5843 16.7617 98.9134 17.3105 99.8983 18.2977C100.883 19.2849 101.444 20.6298 101.457 22.0374C101.427 23.1371 101.069 24.2015 100.431 25.0889C99.7933 25.9764 98.905 26.6448 97.8849 27.0052L101.188 33.2148C101.234 33.2868 101.259 33.3704 101.261 33.4562C101.262 33.5419 101.24 33.6264 101.197 33.7001C101.154 33.7738 101.092 33.8336 101.017 33.873C100.942 33.9123 100.858 33.9296 100.774 33.9227H98.2749C98.1957 33.9274 98.1169 33.9089 98.0477 33.8692C97.9786 33.8296 97.9221 33.7706 97.8849 33.6992L94.6911 27.2039H92.0215V33.4136C92.0184 33.5377 91.9686 33.6559 91.8824 33.7438C91.7962 33.8316 91.6802 33.8823 91.5583 33.8855H89.3519C89.229 33.8855 89.1112 33.8358 89.0243 33.7473C88.9375 33.6588 88.8887 33.5387 88.8887 33.4136V17.2311ZM95.9589 24.5958C96.6055 24.5958 97.2256 24.3341 97.6828 23.8683C98.14 23.4025 98.3969 22.7707 98.3969 22.1119C98.3686 21.4727 98.0993 20.8693 97.6451 20.4274C97.1909 19.9855 96.5869 19.7392 95.9589 19.7398H92.0459V24.6207L95.9589 24.5958Z" fill="white"/>
<path d="M123.518 27.6227L124.207 26.3687C124.251 26.3039 124.306 26.2485 124.371 26.2058C124.435 26.163 124.507 26.1338 124.583 26.1198C124.658 26.1058 124.736 26.1073 124.811 26.1242C124.886 26.1411 124.957 26.173 125.02 26.2182C125.95 26.7251 126.982 27.0082 128.036 27.0458C129.009 27.0458 129.637 26.6571 129.637 25.9674C129.637 25.2777 128.923 24.7134 127.175 23.8984C125.168 23.0331 123.481 21.8293 123.481 19.7352C123.481 18.1426 124.823 16.2366 127.938 16.2366C129.282 16.2118 130.609 16.5539 131.779 17.2272C131.928 17.3188 132.036 17.4638 132.084 17.6335C132.132 17.8031 132.116 17.9849 132.038 18.1426L131.447 19.2211C131.357 19.358 131.223 19.459 131.068 19.507C130.913 19.555 130.747 19.547 130.597 19.4844C129.757 19.1022 128.856 18.8771 127.938 18.8198C126.83 18.8198 126.473 19.2963 126.473 19.7728C126.473 20.5879 127.285 20.939 128.554 21.4782C130.93 22.4939 132.875 23.4846 132.875 25.8671C132.875 27.8358 130.967 29.629 128.073 29.629C126.545 29.6973 125.037 29.2572 123.777 28.375C123.707 28.3473 123.645 28.3047 123.594 28.2502C123.542 28.1957 123.503 28.1305 123.478 28.0591C123.454 27.9877 123.445 27.9118 123.451 27.8365C123.458 27.7612 123.481 27.6882 123.518 27.6227Z" fill="white"/>
</svg>
