<svg width="52" height="42" viewBox="0 0 52 42" fill="none" xmlns="http://www.w3.org/2000/svg">
<path d="M49.6336 0.900879H2.01413C1.52839 0.900879 1.06253 1.09561 0.719056 1.44224C0.37558 1.78887 0.182617 2.259 0.182617 2.74921V39.7158C0.182617 40.206 0.37558 40.6761 0.719056 41.0228C1.06253 41.3694 1.52839 41.5641 2.01413 41.5641H49.6336C50.1193 41.5641 50.5852 41.3694 50.9286 41.0228C51.2721 40.6761 51.4651 40.206 51.4651 39.7158V2.74921C51.4651 2.259 51.2721 1.78887 50.9286 1.44224C50.5852 1.09561 50.1193 0.900879 49.6336 0.900879ZM26.9479 24.5399C26.6265 24.792 26.231 24.9289 25.8239 24.9289C25.4167 24.9289 25.0212 24.792 24.6998 24.5399L8.20615 11.5941C7.4111 10.9701 7.26748 9.82189 7.88433 9.02125C8.50908 8.21035 9.67519 8.06448 10.4804 8.6965L23.3542 18.8008C24.804 19.9388 26.8437 19.9388 28.2935 18.8008L41.1673 8.6965C41.9725 8.06448 43.1386 8.21035 43.7634 9.02124C44.3802 9.82189 44.2366 10.9701 43.4416 11.5941L26.9479 24.5399Z" fill="#176C4D"/>
</svg>
