<svg width="42" height="42" viewBox="0 0 42 42" fill="none" xmlns="http://www.w3.org/2000/svg">
<path d="M4.28808 0.901367C2.07894 0.901367 0.288086 2.69223 0.288086 4.90137V37.6088C0.288086 39.818 2.07895 41.6088 4.28809 41.6088H37.0493C39.2584 41.6088 41.0493 39.818 41.0493 37.6088V4.90136C41.0493 2.69222 39.2584 0.901367 37.0493 0.901367H4.28808ZM3.99365 8.60205C3.99365 6.39291 5.78451 4.60205 7.99365 4.60205H33.3437C35.5528 4.60205 37.3437 6.39291 37.3437 8.60205V33.9082C37.3437 36.1173 35.5528 37.9082 33.3437 37.9082H7.99365C5.78451 37.9082 3.99365 36.1173 3.99365 33.9082V8.60205ZM20.6687 8.30273C17.0928 8.30273 14.1839 11.2078 14.1839 14.7789C14.1839 18.3501 17.0928 21.2551 20.6687 21.2551C24.2445 21.2551 27.1534 18.3501 27.1534 14.7789C27.1534 11.2078 24.2445 8.30273 20.6687 8.30273ZM20.6687 12.0034C22.2009 12.0034 23.4479 13.2487 23.4479 14.7789C23.4479 16.3091 22.2009 17.5544 20.6687 17.5544C19.1364 17.5544 17.8895 16.3091 17.8895 14.7789C17.8895 13.2487 19.1364 12.0034 20.6687 12.0034ZM14.85 21.2727C14.8504 21.2731 14.8502 21.2737 14.8496 21.2738C14.4871 21.3253 14.148 21.4829 13.8752 21.7268C13.602 21.9709 13.4074 22.2905 13.3162 22.6451C13.2249 22.9997 13.2411 23.3734 13.3626 23.7189C13.484 24.0643 13.7054 24.366 13.9987 24.5857C15.6447 25.8124 16.3935 28.4593 14.941 29.9099L13.8004 31.049C13.453 31.3959 13.2578 31.8665 13.2578 32.3571C13.2578 32.8478 13.453 33.3184 13.8004 33.6653C14.1478 34.0123 14.619 34.2072 15.1103 34.2072C15.6016 34.2072 16.0728 34.0123 16.4203 33.6653L17.8421 32.2453C19.4038 30.6857 21.9336 30.6857 23.4952 32.2453L24.9171 33.6653C25.0888 33.8378 25.2929 33.9746 25.5177 34.068C25.7425 34.1613 25.9836 34.2094 26.227 34.2094C26.4705 34.2094 26.7116 34.1613 26.9364 34.068C27.1612 33.9746 27.3653 33.8378 27.5369 33.6653C27.7091 33.4936 27.8458 33.2897 27.939 33.0653C28.0322 32.8408 28.0802 32.6002 28.0802 32.3571C28.0802 32.1141 28.0322 31.8735 27.939 31.649C27.8458 31.4246 27.7091 31.2206 27.5369 31.049L26.3963 29.9098C24.9434 28.4588 25.6918 25.812 27.3387 24.5857C28.1539 23.9714 28.3207 22.8094 27.7074 21.9952C27.5617 21.8004 27.379 21.6363 27.1696 21.5122C26.9602 21.3881 26.7284 21.3066 26.4874 21.2722C26.2464 21.2378 26.001 21.2513 25.7652 21.3119C25.5294 21.3724 25.308 21.4789 25.1135 21.6252C22.5307 23.5625 18.7992 23.5588 16.2202 21.6252C16.0263 21.4788 15.8053 21.3723 15.57 21.3116C15.3351 21.2511 15.0906 21.2375 14.8504 21.2716C14.8499 21.2717 14.8496 21.2723 14.85 21.2727Z" fill="#176C4D"/>
</svg>
