<svg width="24" height="24" viewBox="0 0 24 24" fill="none" xmlns="http://www.w3.org/2000/svg">
<path d="M3.09677 21.75H4.64516V24H3.09677C1.38871 24 0 22.6547 0 21V3C0 1.34531 1.38871 0 3.09677 0H11.1048C11.9274 0 12.7161 0.314063 13.2968 0.876563L17.6758 5.11875C18.2565 5.68125 18.5806 6.44531 18.5806 7.24219V13.5H16.2581V7.5H12.3871C11.5306 7.5 10.8387 6.82969 10.8387 6V2.25H3.09677C2.67097 2.25 2.32258 2.5875 2.32258 3V21C2.32258 21.4125 2.67097 21.75 3.09677 21.75ZM8.51613 16.5H10.0645C11.5597 16.5 12.7742 17.6766 12.7742 19.125C12.7742 20.5734 11.5597 21.75 10.0645 21.75H9.29032V23.25C9.29032 23.6625 8.94194 24 8.51613 24C8.09032 24 7.74194 23.6625 7.74194 23.25V21V17.25C7.74194 16.8375 8.09032 16.5 8.51613 16.5ZM10.0645 20.25C10.7081 20.25 11.2258 19.7484 11.2258 19.125C11.2258 18.5016 10.7081 18 10.0645 18H9.29032V20.25H10.0645ZM14.7097 16.5H16.2581C17.5403 16.5 18.5806 17.5078 18.5806 18.75V21.75C18.5806 22.9922 17.5403 24 16.2581 24H14.7097C14.2839 24 13.9355 23.6625 13.9355 23.25V17.25C13.9355 16.8375 14.2839 16.5 14.7097 16.5ZM16.2581 22.5C16.6839 22.5 17.0323 22.1625 17.0323 21.75V18.75C17.0323 18.3375 16.6839 18 16.2581 18H15.4839V22.5H16.2581ZM20.129 17.25C20.129 16.8375 20.4774 16.5 20.9032 16.5H23.2258C23.6516 16.5 24 16.8375 24 17.25C24 17.6625 23.6516 18 23.2258 18H21.6774V19.5H23.2258C23.6516 19.5 24 19.8375 24 20.25C24 20.6625 23.6516 21 23.2258 21H21.6774V23.25C21.6774 23.6625 21.329 24 20.9032 24C20.4774 24 20.129 23.6625 20.129 23.25V20.25V17.25Z" fill="#176C4D"/>
</svg>
