<svg width="41" height="42" viewBox="0 0 41 42" fill="none" xmlns="http://www.w3.org/2000/svg">
<path d="M36.2983 4.86526C35.2361 3.9386 30.9494 0.991881 21.4041 0.930731C21.334 0.930282 21.268 0.928442 21.1979 0.925368C20.0716 0.875943 9.65353 0.549404 4.43266 5.08785C1.36026 7.99743 0.277368 12.2664 0.159844 17.5529C0.0423245 22.8393 -0.100378 32.7442 9.98048 35.4315C9.98111 35.4317 9.98177 35.4318 9.98242 35.4318C9.98651 35.4318 9.98983 35.4351 9.98983 35.4392L9.9816 39.4571C9.9815 39.5082 9.9803 39.559 9.98087 39.6101C9.98448 39.9398 10.0635 41.2383 11.0727 41.5292C12.4662 41.9426 13.2889 40.6786 14.6236 39.3192C14.9719 38.9628 15.3832 38.5268 15.8011 38.0777C16.6412 37.1748 17.8443 36.7086 19.0768 36.7512C25.0049 36.9561 29.3808 35.9149 29.9269 35.7498C31.3203 35.3205 39.2028 34.3665 40.4788 24.4612C41.8051 14.2379 39.8408 7.78279 36.2983 4.86526ZM37.4651 23.7139C36.3822 31.9816 29.994 32.5063 28.8188 32.864C28.3729 32.9977 24.6708 33.8728 19.7681 33.8237C18.5298 33.8113 17.3289 34.2992 16.507 35.2255C15.1075 36.803 12.9619 39.1944 12.0801 40.0346C11.6352 40.456 11.1483 40.4162 11.1567 39.5815C11.1567 39.033 11.1903 32.7686 11.1903 32.7686C11.1819 32.7686 11.1819 32.7686 11.1903 32.7686C2.64462 30.5268 3.1483 22.0922 3.24064 17.6801C3.33298 13.2681 4.2144 9.65097 6.81671 7.21836C11.1931 3.46081 19.9084 3.74256 21.0064 3.79404C21.0836 3.79765 21.1612 3.80011 21.2385 3.80062C29.2928 3.85418 33.1547 6.15687 34.057 6.93218C37.0538 9.36478 38.5816 15.1839 37.4651 23.7139ZM25.7967 17.2906C25.8303 17.9743 24.7474 18.022 24.7138 17.3383C24.6215 15.5894 23.7569 14.7388 21.9772 14.6434C21.2553 14.6036 21.3225 13.5781 22.036 13.6179C24.3781 13.7371 25.6792 15.009 25.7967 17.2906ZM27.5008 18.1889C27.5848 14.8183 25.3602 12.179 21.1378 11.8848C20.4242 11.8371 20.4998 10.8116 21.2133 10.8593C26.0822 11.1932 28.6761 14.3651 28.5837 18.2128C28.5753 18.8964 27.484 18.8646 27.5008 18.1889ZM31.4463 19.2542C31.4547 19.9379 30.3634 19.9458 30.3634 19.2621C30.313 12.7831 25.7548 9.25348 20.2228 9.21373C19.5092 9.20578 19.5092 8.18822 20.2228 8.18822C26.4095 8.22797 31.3875 12.2744 31.4463 19.2542ZM30.5014 27.046C30.499 27.0504 30.4977 27.0554 30.4977 27.0605C30.4977 27.0659 30.4963 27.0711 30.4935 27.0757C29.5882 28.5804 27.9015 30.2391 26.163 29.7201C26.1542 29.7175 26.1464 29.7119 26.1412 29.7044C26.1356 29.6965 26.128 29.6909 26.1186 29.6884C24.3395 29.2124 20.1823 27.1828 17.5533 25.2005C16.1934 24.183 14.951 22.9826 13.994 21.8299C13.1294 20.8044 12.2564 19.5881 11.4085 18.1253C9.88161 15.5117 9.3709 14.1328 9.25429 13.7859C9.23435 13.7265 9.215 13.6674 9.19757 13.6073C8.72796 11.9883 10.4416 10.4274 12.0137 9.5835C12.0187 9.5808 12.0243 9.57942 12.03 9.57942C12.0353 9.57942 12.0406 9.57816 12.0454 9.57582C12.8123 9.20002 13.5453 9.32588 14.039 9.88331C14.0426 9.88737 14.0456 9.89085 14.0492 9.89493C14.1262 9.98207 15.103 11.0891 15.5302 11.6463C15.95 12.1869 16.5124 13.0534 16.8062 13.5384C17.3183 14.4049 16.9993 15.2873 16.4956 15.653L15.4883 16.4161C15.2128 16.6257 15.1049 16.9319 15.0641 17.1701C15.0236 17.4065 15.0748 17.6445 15.157 17.8698C15.5853 19.0434 17.3129 22.9137 21.8182 24.1527C22.0169 24.2073 22.2241 24.2442 22.4288 24.2205C22.6876 24.1905 23.0527 24.0952 23.2952 23.8093L24.101 22.8554C24.4872 22.3784 25.419 22.0763 26.334 22.5612C27.568 23.2211 29.1378 24.2466 30.1787 25.1767C30.7645 25.6284 30.8998 26.3172 30.5014 27.046Z" fill="#176C4D"/>
</svg>
