<svg width="42" height="42" viewBox="0 0 42 42" fill="none" xmlns="http://www.w3.org/2000/svg">
<path d="M4.60937 0.901367C2.40023 0.901367 0.609375 2.69223 0.609375 4.90137V37.6789C0.609375 39.8881 2.40024 41.6789 4.60937 41.6789H37.3706C39.5797 41.6789 41.3706 39.8881 41.3706 37.6789V4.90137C41.3706 2.69223 39.5797 0.901367 37.3706 0.901367H4.60937ZM18.7036 11.8051C19.8577 11.7931 20.9866 11.9211 21.5373 11.937C23.5787 11.9958 23.9393 13.0287 23.9132 13.8783C23.8862 14.7553 23.4807 17.6291 23.7629 19.4288C23.9357 20.5305 25.1585 20.6264 25.9057 19.7987C27.3474 18.2015 28.4034 15.644 29.2223 13.8783C29.756 12.7274 29.6716 12.6703 30.9016 12.6687L35.7877 12.6612C36.9644 12.6598 36.9185 12.6185 37.2954 13.0993C38.1721 14.2176 34.5289 18.8691 33.3521 20.1552C31.1806 22.5287 32.4476 23.4479 32.7974 23.7741C34.4179 25.2856 35.9838 26.8531 36.9571 28.2988C37.7308 29.4481 37.4112 30.5182 36.4271 30.5587L31.1877 30.7752C29.449 30.8467 26.7455 27.7287 26.314 27.0494C25.965 26.489 24.2831 25.7867 24.1247 27.2186L23.9032 29.2171C23.7424 30.6457 22.688 30.6124 21.8557 30.6482C16.0925 30.8963 14.1298 28.7011 11.2275 25.4614C9.10044 22.452 7.07057 19.4253 5.38852 15.7996C5.28212 15.5702 5.1863 15.3538 5.10068 15.1471C4.58615 13.9047 5.28891 12.6905 6.63273 12.6422C7.81827 12.5995 9.24344 12.6783 10.3618 12.6537C10.9073 12.6416 11.2754 12.9544 11.5634 13.577C12.6515 15.9302 13.8351 18.2423 15.3812 20.3023C15.4821 20.4368 15.6252 20.5907 15.7565 20.696C16.7454 21.4888 17.3282 19.2419 17.3422 17.9745C17.3486 17.3952 17.3492 16.7717 17.3527 16.2103C17.3532 16.1299 17.353 16.0484 17.3515 15.9661C17.3136 13.8795 16.6168 11.8267 18.7036 11.8051Z" fill="#176C4D"/>
</svg>
