<svg width="80" height="80" viewBox="0 0 80 80" fill="none" xmlns="http://www.w3.org/2000/svg">
<path d="M68.0179 11.625C60.5357 4.125 50.5714 0 39.9821 0C18.125 0 0.339286 17.7857 0.339286 39.6429C0.339286 46.625 2.16071 53.4464 5.625 59.4643L0 80L21.0179 74.4821C26.8036 77.6429 33.3214 79.3036 39.9643 79.3036H39.9821C61.8214 79.3036 80 61.5179 80 39.6607C80 29.0714 75.5 19.125 68.0179 11.625ZM39.9821 72.625C34.0536 72.625 28.25 71.0357 23.1964 68.0357L22 67.3214L9.53571 70.5893L12.8571 58.4286L12.0714 57.1786C8.76786 51.9286 7.03571 45.875 7.03571 39.6429C7.03571 21.4821 21.8214 6.69643 40 6.69643C48.8036 6.69643 57.0714 10.125 63.2857 16.3571C69.5 22.5893 73.3214 30.8571 73.3036 39.6607C73.3036 57.8393 58.1429 72.625 39.9821 72.625ZM58.0536 47.9464C57.0714 47.4464 52.1964 45.0536 51.2857 44.7321C50.375 44.3929 49.7143 44.2321 49.0536 45.2321C48.3929 46.2321 46.5 48.4464 45.9107 49.125C45.3393 49.7857 44.75 49.875 43.7679 49.375C37.9464 46.4643 34.125 44.1786 30.2857 37.5893C29.2679 35.8393 31.3036 35.9643 33.1964 32.1786C33.5179 31.5179 33.3571 30.9464 33.1071 30.4464C32.8571 29.9464 30.875 25.0714 30.0536 23.0893C29.25 21.1607 28.4286 21.4286 27.8214 21.3929C27.25 21.3571 26.5893 21.3571 25.9286 21.3571C25.2679 21.3571 24.1964 21.6071 23.2857 22.5893C22.375 23.5893 19.8214 25.9821 19.8214 30.8571C19.8214 35.7321 23.375 40.4464 23.8571 41.1071C24.3571 41.7679 30.8393 51.7679 40.7857 56.0714C47.0714 58.7857 49.5357 59.0179 52.6786 58.5536C54.5893 58.2679 58.5357 56.1607 59.3571 53.8393C60.1786 51.5179 60.1786 49.5357 59.9286 49.125C59.6964 48.6786 59.0357 48.4286 58.0536 47.9464Z" fill="#176C4D"/>
</svg>
